<?xml version="1.0" encoding="UTF-8" standalone="no"?>
<!-- Created with Inkscape (http://www.inkscape.org/) -->

<svg
   version="1.1"
   id="svg1"
   width="800"
   height="800"
   viewBox="0 0 800 800"
   sodipodi:docname="origintrail_logo_alt-dark_purple.svg"
   inkscape:version="1.3.2 (091e20e, 2023-11-25, custom)"
   xmlns:inkscape="http://www.inkscape.org/namespaces/inkscape"
   xmlns:sodipodi="http://sodipodi.sourceforge.net/DTD/sodipodi-0.dtd"
   xmlns="http://www.w3.org/2000/svg"
   xmlns:svg="http://www.w3.org/2000/svg">
  <defs
     id="defs1">
    <mask
       maskUnits="userSpaceOnUse"
       x="0"
       y="0"
       width="1"
       height="1"
       id="mask1">
      <path
         id="path6"
         d="M -32768,32767 H 32767 V -32768 H -32768 Z"
         style="fill:url(#linearGradient6);stroke:none" />
    </mask>
    <linearGradient
       x1="0"
       y1="0"
       x2="1"
       y2="0"
       gradientUnits="userSpaceOnUse"
       gradientTransform="matrix(-176.05949,68.02298,68.02298,176.05949,456.45239,455.79642)"
       spreadMethod="pad"
       id="linearGradient6">
      <stop
         style="stop-opacity:1;stop-color:#ffffff"
         offset="0"
         id="stop1" />
      <stop
         style="stop-opacity:0.94531167;stop-color:#ffffff"
         offset="0.0353385"
         id="stop2" />
      <stop
         style="stop-opacity:0.94531167;stop-color:#ffffff"
         offset="0.0355947"
         id="stop3" />
      <stop
         style="stop-opacity:0;stop-color:#ffffff"
         offset="0.58359002"
         id="stop4" />
      <stop
         style="stop-opacity:0;stop-color:#ffffff"
         offset="0.886067"
         id="stop5" />
      <stop
         style="stop-opacity:0;stop-color:#ffffff"
         offset="1"
         id="stop6" />
    </linearGradient>
    <linearGradient
       x1="0"
       y1="0"
       x2="1"
       y2="0"
       gradientUnits="userSpaceOnUse"
       gradientTransform="matrix(-176.05949,68.02298,68.02298,176.05949,456.45239,455.79642)"
       spreadMethod="pad"
       id="linearGradient12">
      <stop
         style="stop-opacity:1;stop-color:#2a2157"
         offset="0"
         id="stop7" />
      <stop
         style="stop-opacity:1;stop-color:#2a2157"
         offset="0.0353385"
         id="stop8" />
      <stop
         style="stop-opacity:1;stop-color:#2a2157"
         offset="0.0355947"
         id="stop9" />
      <stop
         style="stop-opacity:1;stop-color:#ffffff"
         offset="0.58359002"
         id="stop10" />
      <stop
         style="stop-opacity:1;stop-color:#ffffff"
         offset="0.886067"
         id="stop11" />
      <stop
         style="stop-opacity:1;stop-color:#ffffff"
         offset="1"
         id="stop12" />
    </linearGradient>
    <clipPath
       clipPathUnits="userSpaceOnUse"
       id="clipPath12">
      <path
         d="M 389.089,405.437 477.25,509.625 C 429.431,550.128 367.574,574.567 300,574.567 V 438.082 c 33.964,0 65.055,-12.285 89.089,-32.645"
         transform="matrix(1.3333333,0,0,-1.3333333,0,800)"
         id="path12" />
    </clipPath>
    <clipPath
       clipPathUnits="userSpaceOnUse"
       id="clipPath14">
      <path
         d="M 0,600 H 600 V 0 H 0 Z"
         transform="matrix(1.3333333,0,0,-1.3333333,0,800)"
         id="path14" />
    </clipPath>
    <mask
       maskUnits="userSpaceOnUse"
       x="0"
       y="0"
       width="1"
       height="1"
       id="mask14">
      <path
         id="path17"
         d="M -32768,32767 H 32767 V -32768 H -32768 Z"
         style="fill:url(#linearGradient17);stroke:none" />
    </mask>
    <linearGradient
       x1="0"
       y1="0"
       x2="1"
       y2="0"
       gradientUnits="userSpaceOnUse"
       gradientTransform="matrix(24.232565,37.053657,37.053657,-24.232565,449.32443,152.71635)"
       spreadMethod="pad"
       id="linearGradient17">
      <stop
         style="stop-opacity:1;stop-color:#ffffff"
         offset="0"
         id="stop14" />
      <stop
         style="stop-opacity:0;stop-color:#ffffff"
         offset="0.57093049"
         id="stop15" />
      <stop
         style="stop-opacity:0;stop-color:#ffffff"
         offset="0.886067"
         id="stop16" />
      <stop
         style="stop-opacity:0;stop-color:#ffffff"
         offset="1"
         id="stop17" />
    </linearGradient>
    <linearGradient
       x1="0"
       y1="0"
       x2="1"
       y2="0"
       gradientUnits="userSpaceOnUse"
       gradientTransform="matrix(24.232565,37.053657,37.053657,-24.232565,449.32443,152.71635)"
       spreadMethod="pad"
       id="linearGradient21">
      <stop
         style="stop-opacity:1;stop-color:#2a2157"
         offset="0"
         id="stop18" />
      <stop
         style="stop-opacity:1;stop-color:#ffffff"
         offset="0.57093049"
         id="stop19" />
      <stop
         style="stop-opacity:1;stop-color:#ffffff"
         offset="0.886067"
         id="stop20" />
      <stop
         style="stop-opacity:1;stop-color:#ffffff"
         offset="1"
         id="stop21" />
    </linearGradient>
    <clipPath
       clipPathUnits="userSpaceOnUse"
       id="clipPath21">
      <path
         d="m 405.513,211.346 104.421,-87.889 c 10.114,12.003 19.219,24.883 27.18,38.515 l -117.941,68.732 c -4.001,-6.851 -8.577,-13.324 -13.66,-19.358"
         transform="matrix(1.3333333,0,0,-1.3333333,0,800)"
         id="path21" />
    </clipPath>
    <clipPath
       clipPathUnits="userSpaceOnUse"
       id="clipPath23">
      <path
         d="M 0,600 H 600 V 0 H 0 Z"
         transform="matrix(1.3333333,0,0,-1.3333333,0,800)"
         id="path23" />
    </clipPath>
    <mask
       maskUnits="userSpaceOnUse"
       x="0"
       y="0"
       width="1"
       height="1"
       id="mask23">
      <path
         id="path26"
         d="M -32768,32767 H 32767 V -32768 H -32768 Z"
         style="fill:url(#linearGradient26);stroke:none" />
    </mask>
    <linearGradient
       x1="0"
       y1="0"
       x2="1"
       y2="0"
       gradientUnits="userSpaceOnUse"
       gradientTransform="matrix(7.5501761,78.933655,78.933655,-7.5501761,496.45844,212.48782)"
       spreadMethod="pad"
       id="linearGradient26">
      <stop
         style="stop-opacity:1;stop-color:#ffffff"
         offset="0"
         id="stop23" />
      <stop
         style="stop-opacity:0;stop-color:#ffffff"
         offset="0.57093049"
         id="stop24" />
      <stop
         style="stop-opacity:0;stop-color:#ffffff"
         offset="0.886067"
         id="stop25" />
      <stop
         style="stop-opacity:0;stop-color:#ffffff"
         offset="1"
         id="stop26" />
    </linearGradient>
    <linearGradient
       x1="0"
       y1="0"
       x2="1"
       y2="0"
       gradientUnits="userSpaceOnUse"
       gradientTransform="matrix(7.5501761,78.933655,78.933655,-7.5501761,496.45844,212.48782)"
       spreadMethod="pad"
       id="linearGradient30">
      <stop
         style="stop-opacity:1;stop-color:#2a2157"
         offset="0"
         id="stop27" />
      <stop
         style="stop-opacity:1;stop-color:#ffffff"
         offset="0.57093049"
         id="stop28" />
      <stop
         style="stop-opacity:1;stop-color:#ffffff"
         offset="0.886067"
         id="stop29" />
      <stop
         style="stop-opacity:1;stop-color:#ffffff"
         offset="1"
         id="stop30" />
    </linearGradient>
    <clipPath
       clipPathUnits="userSpaceOnUse"
       id="clipPath30">
      <path
         d="m 429.441,252.447 128.103,-47.215 c 10.907,29.581 16.869,61.555 16.869,94.922 H 437.918 c 0,-16.77 -2.996,-32.84 -8.477,-47.707"
         transform="matrix(1.3333333,0,0,-1.3333333,0,800)"
         id="path30" />
    </clipPath>
    <clipPath
       clipPathUnits="userSpaceOnUse"
       id="clipPath32">
      <path
         d="M 0,600 H 600 V 0 H 0 Z"
         transform="matrix(1.3333333,0,0,-1.3333333,0,800)"
         id="path32" />
    </clipPath>
    <mask
       maskUnits="userSpaceOnUse"
       x="0"
       y="0"
       width="1"
       height="1"
       id="mask32">
      <path
         id="path35"
         d="M -32768,32767 H 32767 V -32768 H -32768 Z"
         style="fill:url(#linearGradient35);stroke:none" />
    </mask>
    <linearGradient
       x1="0"
       y1="0"
       x2="1"
       y2="0"
       gradientUnits="userSpaceOnUse"
       gradientTransform="matrix(-37.45443,79.79422,79.79422,37.45443,515.09521,321.55829)"
       spreadMethod="pad"
       id="linearGradient35">
      <stop
         style="stop-opacity:1;stop-color:#ffffff"
         offset="0"
         id="stop32" />
      <stop
         style="stop-opacity:0;stop-color:#ffffff"
         offset="0.88058973"
         id="stop33" />
      <stop
         style="stop-opacity:0;stop-color:#ffffff"
         offset="0.886067"
         id="stop34" />
      <stop
         style="stop-opacity:0;stop-color:#ffffff"
         offset="1"
         id="stop35" />
    </linearGradient>
    <linearGradient
       x1="0"
       y1="0"
       x2="1"
       y2="0"
       gradientUnits="userSpaceOnUse"
       gradientTransform="matrix(-37.45443,79.79422,79.79422,37.45443,515.09521,321.55829)"
       spreadMethod="pad"
       id="linearGradient39">
      <stop
         style="stop-opacity:1;stop-color:#2a2157"
         offset="0"
         id="stop36" />
      <stop
         style="stop-opacity:1;stop-color:#ffffff"
         offset="0.88058973"
         id="stop37" />
      <stop
         style="stop-opacity:1;stop-color:#ffffff"
         offset="0.886067"
         id="stop38" />
      <stop
         style="stop-opacity:1;stop-color:#ffffff"
         offset="1"
         id="stop39" />
    </linearGradient>
    <clipPath
       clipPathUnits="userSpaceOnUse"
       id="clipPath39">
      <path
         d="m 435.841,324.107 134.438,23.705 c -8.421,48.09 -29.363,91.867 -59.341,127.857 L 406.02,388.37 c 15.065,-18.089 25.589,-40.092 29.821,-64.263"
         transform="matrix(1.3333333,0,0,-1.3333333,0,800)"
         id="path39" />
    </clipPath>
    <clipPath
       clipPathUnits="userSpaceOnUse"
       id="clipPath41">
      <path
         d="M 0,600 H 600 V 0 H 0 Z"
         transform="matrix(1.3333333,0,0,-1.3333333,0,800)"
         id="path41" />
    </clipPath>
    <clipPath
       clipPathUnits="userSpaceOnUse"
       id="clipPath43">
      <path
         d="M 0,600 H 600 V 0 H 0 Z"
         transform="translate(-300.00011,-162.2356)"
         id="path43" />
    </clipPath>
    <clipPath
       clipPathUnits="userSpaceOnUse"
       id="clipPath45">
      <path
         d="M 0,600 H 600 V 0 H 0 Z"
         transform="translate(-419.17291,-230.70411)"
         id="path45" />
    </clipPath>
    <clipPath
       clipPathUnits="userSpaceOnUse"
       id="clipPath47">
      <path
         d="M 0,600 H 600 V 0 H 0 Z"
         transform="translate(-437.91851,-300.15411)"
         id="path47" />
    </clipPath>
    <clipPath
       clipPathUnits="userSpaceOnUse"
       id="clipPath49">
      <path
         d="M 0,600 H 600 V 0 H 0 Z"
         transform="translate(-406.01961,-388.36971)"
         id="path49" />
    </clipPath>
  </defs>
  <sodipodi:namedview
     id="namedview1"
     pagecolor="#ffffff"
     bordercolor="#000000"
     borderopacity="0.25"
     inkscape:showpageshadow="2"
     inkscape:pageopacity="0.0"
     inkscape:pagecheckerboard="0"
     inkscape:deskcolor="#d1d1d1"
     inkscape:zoom="1.02625"
     inkscape:cx="400"
     inkscape:cy="400"
     inkscape:window-width="1920"
     inkscape:window-height="1017"
     inkscape:window-x="-8"
     inkscape:window-y="-8"
     inkscape:window-maximized="1"
     inkscape:current-layer="layer-MC1">
    <inkscape:page
       x="0"
       y="0"
       inkscape:label="1"
       id="page1"
       width="800"
       height="800"
       margin="34.321201 34.116001 33.910667 34.115601"
       bleed="0" />
  </sodipodi:namedview>
  <g
     id="layer-MC0"
     inkscape:groupmode="layer"
     inkscape:label="gradient" />
  <g
     id="layer-MC1"
     inkscape:groupmode="layer"
     inkscape:label="logo">
    <g
       opacity="0.399994"
       id="g14"
       clip-path="url(#clipPath14)">
      <g
         mask="url(#mask1)"
         clip-path="url(#clipPath12)"
         id="g13">
        <path
           d="M 389.089,405.437 477.25,509.625 C 429.431,550.128 367.574,574.567 300,574.567 V 438.082 c 33.964,0 65.055,-12.285 89.089,-32.645"
           transform="matrix(1.3333333,0,0,-1.3333333,0,800)"
           style="fill:url(#linearGradient12);stroke:none"
           id="path13" />
      </g>
    </g>
    <g
       opacity="0.300003"
       id="g23"
       clip-path="url(#clipPath23)">
      <g
         mask="url(#mask14)"
         clip-path="url(#clipPath21)"
         id="g22">
        <path
           d="m 405.513,211.346 104.421,-87.889 c 10.114,12.003 19.219,24.883 27.18,38.515 l -117.941,68.732 c -4.001,-6.851 -8.577,-13.324 -13.66,-19.358"
           transform="matrix(1.3333333,0,0,-1.3333333,0,800)"
           style="fill:url(#linearGradient21);stroke:none"
           id="path22" />
      </g>
    </g>
    <g
       opacity="0.399994"
       id="g32"
       clip-path="url(#clipPath32)">
      <g
         mask="url(#mask23)"
         clip-path="url(#clipPath30)"
         id="g31">
        <path
           d="m 429.441,252.447 128.103,-47.215 c 10.907,29.581 16.869,61.555 16.869,94.922 H 437.918 c 0,-16.77 -2.996,-32.84 -8.477,-47.707"
           transform="matrix(1.3333333,0,0,-1.3333333,0,800)"
           style="fill:url(#linearGradient30);stroke:none"
           id="path31" />
      </g>
    </g>
    <g
       opacity="0.199997"
       id="g41"
       clip-path="url(#clipPath41)">
      <g
         mask="url(#mask32)"
         clip-path="url(#clipPath39)"
         id="g40">
        <path
           d="m 435.841,324.107 134.438,23.705 c -8.421,48.09 -29.363,91.867 -59.341,127.857 L 406.02,388.37 c 15.065,-18.089 25.589,-40.092 29.821,-64.263"
           transform="matrix(1.3333333,0,0,-1.3333333,0,800)"
           style="fill:url(#linearGradient39);stroke:none"
           id="path40" />
      </g>
    </g>
    <path
       id="path42"
       d="m 0,0 c -76.17,0 -137.928,61.748 -137.928,137.919 0,76.179 61.758,137.927 137.928,137.927 v 136.486 c -151.56,0 -274.413,-122.854 -274.413,-274.413 0,-151.551 122.853,-274.414 274.413,-274.414 84.237,0 159.596,37.971 209.934,97.716 L 105.512,49.111 C 80.213,19.083 42.338,0 0,0"
       style="fill:#2a2157;fill-opacity:1;fill-rule:nonzero;stroke:none"
       transform="matrix(1.3333333,0,0,-1.3333333,400.00013,583.68587)"
       clip-path="url(#clipPath43)" />
    <path
       id="path44"
       d="m 0,0 117.941,-68.732 c 8.007,13.709 14.867,28.17 20.43,43.26 L 10.268,21.742 C 7.472,14.158 4.024,6.89 0,0"
       style="fill:#2a2157;fill-opacity:1;fill-rule:nonzero;stroke:none"
       transform="matrix(1.3333333,0,0,-1.3333333,558.8972,492.39453)"
       clip-path="url(#clipPath45)" />
    <path
       id="path46"
       d="m 0,0 h 136.495 c 0,16.256 -1.423,32.178 -4.134,47.658 L -2.077,23.952 C -0.715,16.173 0,8.17 0,0"
       style="fill:#2a2157;fill-opacity:1;fill-rule:nonzero;stroke:none"
       transform="matrix(1.3333333,0,0,-1.3333333,583.89133,399.79453)"
       clip-path="url(#clipPath47)" />
    <path
       id="path48"
       d="M 0,0 104.918,87.299 C 94.695,99.572 83.417,110.932 71.23,121.255 L -16.931,17.068 C -10.806,11.879 -5.138,6.169 0,0"
       style="fill:#2a2157;fill-opacity:1;fill-rule:nonzero;stroke:none"
       transform="matrix(1.3333333,0,0,-1.3333333,541.35947,282.17373)"
       clip-path="url(#clipPath49)" />
  </g>
</svg>
