<?xml version="1.0" encoding="UTF-8"?>
<svg version="1.1" xmlns="http://www.w3.org/2000/svg" width="188" height="76">
<path d="M0 0 C62.04 0 124.08 0 188 0 C188 25.08 188 50.16 188 76 C125.96 76 63.92 76 0 76 C0 50.92 0 25.84 0 0 Z " fill="#FDFDFE" transform="translate(0,0)"/>
<path d="M0 0 C1.4994767 0.88305234 2.98235054 1.7956668 4.4375 2.75 C5.79875 3.5853125 5.79875 3.5853125 7.1875 4.4375 C14.52206017 11.97579795 16.85276881 19.81579934 16.7890625 30.09375 C16.27332079 35.45746382 14.36764718 39.29957357 11.4375 43.75 C10.839375 44.678125 10.24125 45.60625 9.625 46.5625 C2.04505929 54.14244071 -6.3343783 55.96192235 -16.79296875 56.015625 C-19.55343198 55.75086971 -21.20751515 55.16636321 -23.5625 53.75 C-23.10886829 52.16531323 -22.64938548 50.58230076 -22.1875 49 C-21.93226562 48.11828125 -21.67703125 47.2365625 -21.4140625 46.328125 C-21.13304688 45.47734375 -20.85203125 44.6265625 -20.5625 43.75 C-20.33046875 43.00234375 -20.0984375 42.2546875 -19.859375 41.484375 C-18.5625 39.75 -18.5625 39.75 -15.6640625 39.0625 C-13.94316406 38.9078125 -13.94316406 38.9078125 -12.1875 38.75 C-7.3009369 38.34408202 -7.3009369 38.34408202 -3.2109375 35.875 C-0.33645032 32.16949994 -0.15626916 28.56813762 -0.22265625 24.0390625 C-0.82808397 19.96112405 -2.45911496 18.45720822 -5.5625 15.75 C-7.92888827 14.73792898 -10.01268433 14.24996386 -12.5625 13.75 C-12.5625 17.71 -12.5625 21.67 -12.5625 25.75 C-16.9858013 24.86533974 -18.90546612 24.02329133 -22.5625 21.75 C-23.2225 21.75 -23.8825 21.75 -24.5625 21.75 C-24.8925 24.06 -25.2225 26.37 -25.5625 28.75 C-28.98482972 29.89077657 -31.64923217 29.84815117 -35.25 29.8125 C-37.01923828 29.79896484 -37.01923828 29.79896484 -38.82421875 29.78515625 C-39.72785156 29.77355469 -40.63148437 29.76195312 -41.5625 29.75 C-42.45225871 20.45696462 -39.64155539 14.76771989 -34.875 7 C-25.58214611 -2.04169567 -12.07036984 -5.92611532 0 0 Z " fill="#252559" transform="translate(62.5625,10.25)"/>
<path d="M0 0 C4.55275154 0.09105503 7.29008968 0.74742562 10.4375 4 C13.19417835 7.5822077 13.71698398 10.46222424 13.3984375 14.921875 C12.58642979 19.15705246 10.26824445 22.27646296 7 25 C3.98509443 26.00496852 1.95818308 26.10335303 -1.1875 26.0625 C-2.08855469 26.05347656 -2.98960938 26.04445313 -3.91796875 26.03515625 C-4.60503906 26.02355469 -5.29210937 26.01195313 -6 26 C-6.19335938 26.59167969 -6.38671875 27.18335937 -6.5859375 27.79296875 C-7.94414719 31.9146645 -9.32050585 35.9950524 -11 40 C-18.29698491 36.9275853 -23.73192451 32.97046331 -27.1015625 25.5859375 C-28.26510271 22.24755579 -29 19.55166177 -29 16 C-21.08 15.505 -21.08 15.505 -13 15 C-13 12.69 -13 10.38 -13 8 C-8.62296385 8 -7.57296849 8.7668947 -4 11 C-2.68 11.33 -1.36 11.66 0 12 C0 8.04 0 4.08 0 0 Z " fill="#EEEFF6" transform="translate(50,24)"/>
<path d="M0 0 C0.66 4.95 1.32 9.9 2 15 C2.99 15.33 3.98 15.66 5 16 C4.34 16 3.68 16 3 16 C3 19.96 3 23.92 3 28 C-1.4233013 27.11533974 -3.34296612 26.27329133 -7 24 C-7.66 24 -8.32 24 -9 24 C-9.33 26.31 -9.66 28.62 -10 31 C-13.42232972 32.14077657 -16.08673217 32.09815117 -19.6875 32.0625 C-21.45673828 32.04896484 -21.45673828 32.04896484 -23.26171875 32.03515625 C-24.16535156 32.02355469 -25.06898437 32.01195312 -26 32 C-26.88975871 22.70696462 -24.07905539 17.01771989 -19.3125 9.25 C-14.07967271 4.15860048 -7.38807988 0 0 0 Z " fill="#5D286C" transform="translate(47,8)"/>
<path d="M0 0 C1.32 0 2.64 0 4 0 C4.33 2.31 4.66 4.62 5 7 C5.33 6.67 5.66 6.34 6 6 C8.4375 5.75 8.4375 5.75 11 6 C13 9 13 9 12.75 12.5625 C12 16 12 16 10 18 C7.6171875 18.1953125 7.6171875 18.1953125 4.875 18.125 C3.26625 18.08375 1.6575 18.0425 0 18 C0 12.06 0 6.12 0 0 Z " fill="#7357E2" transform="translate(139,34)"/>
<path d="M0 0 C1.875 1.125 1.875 1.125 3 3 C3.38976435 6.11811483 3.50422245 8.11019567 1.9375 10.875 C-1.1069286 12.64273274 -3.5631012 12.36823916 -7 12 C-8.9375 10.875 -8.9375 10.875 -10 9 C-10.4375 6 -10.4375 6 -10 3 C-7.09589708 -0.35088799 -4.27607914 -0.54588244 0 0 Z " fill="#6D50E1" transform="translate(177,40)"/>
<path d="M0 0 C2.375 1.5 2.375 1.5 4 3 C3.6875 6.375 3.6875 6.375 3 10 C-0.46923881 12.31282587 -1.92205575 12.42478586 -6 12 C-7.875 10.875 -7.875 10.875 -9 9 C-9.39365568 5.85075452 -9.52854531 3.88090884 -7.875 1.125 C-5.10703881 -0.53577671 -3.16909182 -0.38805206 0 0 Z " fill="#6C4FE0" transform="translate(95,40)"/>
<path d="M0 0 C1.32 0 2.64 0 4 0 C4.33 2.31 4.66 4.62 5 7 C5.78375 6.79375 6.5675 6.5875 7.375 6.375 C8.674375 6.189375 8.674375 6.189375 10 6 C12 8 12 8 12.1953125 10.3828125 C12.16050781 11.74019531 12.16050781 11.74019531 12.125 13.125 C12.10695313 14.03507812 12.08890625 14.94515625 12.0703125 15.8828125 C12.03550781 16.93082031 12.03550781 16.93082031 12 18 C10.68 18 9.36 18 8 18 C8 15.03 8 12.06 8 9 C7.01 9.33 6.02 9.66 5 10 C4.67 12.64 4.34 15.28 4 18 C2.68 18 1.36 18 0 18 C0 12.06 0 6.12 0 0 Z " fill="#7358E2" transform="translate(110,34)"/>
<path d="M0 0 C4.51478398 0.53115106 7.34666857 2.36620292 11 5 C6.375 10.875 6.375 10.875 3 12 C1.27204648 12.06802967 -0.45835365 12.08495645 -2.1875 12.0625 C-3.53908203 12.04896484 -3.53908203 12.04896484 -4.91796875 12.03515625 C-5.60503906 12.02355469 -6.29210938 12.01195312 -7 12 C-6.01 11.67 -5.02 11.34 -4 11 C-3.01179035 8.96989555 -3.01179035 8.96989555 -2.375 6.5625 C-1.03187251 2.06374502 -1.03187251 2.06374502 0 0 Z " fill="#A5B3D4" transform="translate(51,38)"/>
<path d="M0 0 C1.32 0 2.64 0 4 0 C4 2.97 4 5.94 4 9 C4.99 8.67 5.98 8.34 7 8 C7.33 5.36 7.66 2.72 8 0 C9.32 0 10.64 0 12 0 C12 3.96 12 7.92 12 12 C10.35 11.67 8.7 11.34 7 11 C5.6696875 11.2784375 5.6696875 11.2784375 4.3125 11.5625 C3.549375 11.706875 2.78625 11.85125 2 12 C0 10 0 10 -0.1953125 7.6171875 C-0.17210938 6.71226563 -0.14890625 5.80734375 -0.125 4.875 C-0.10695313 3.96492188 -0.08890625 3.05484375 -0.0703125 2.1171875 C-0.04710938 1.41851562 -0.02390625 0.71984375 0 0 Z " fill="#7155E1" transform="translate(125,40)"/>
<path d="M0 0 C0 3.96 0 7.92 0 12 C-4.1386803 10.96532992 -6.55025148 9.43050464 -10 7 C-7.88268985 1.88316713 -5.59548444 0 0 0 Z " fill="#282A60" transform="translate(49,24)"/>
<path d="M0 0 C0 1.32 0 2.64 0 4 C0.99 4 1.98 4 3 4 C3 4.99 3 5.98 3 7 C2.01 7 1.02 7 0 7 C0 8.98 0 10.96 0 13 C0.99 13 1.98 13 3 13 C3 13.99 3 14.98 3 16 C0.625 16.125 0.625 16.125 -2 16 C-4 14 -4 14 -4.125 10.375 C-4.08375 9.26125 -4.0425 8.1475 -4 7 C-4.66 7 -5.32 7 -6 7 C-6 6.01 -6 5.02 -6 4 C-5.34 4 -4.68 4 -4 4 C-4 3.01 -4 2.02 -4 1 C-2 0 -2 0 0 0 Z " fill="#6E51E1" transform="translate(106,36)"/>
<path d="M0 0 C2.375 -0.1875 2.375 -0.1875 5 0 C7 3 7 3 6.75 6.5625 C6 10 6 10 4 12 C0.875 11.625 0.875 11.625 -2 11 C-1 9 -1 9 2 8 C2 6.68 2 5.36 2 4 C1.01 3.34 0.02 2.68 -1 2 C-0.67 1.34 -0.34 0.68 0 0 Z " fill="#6A4DE0" transform="translate(145,40)"/>
<path d="M0 0 C4.875 0.875 4.875 0.875 6 2 C6.07205511 3.68608966 6.08386068 5.37500659 6.0625 7.0625 C6.05347656 7.98160156 6.04445313 8.90070312 6.03515625 9.84765625 C6.02355469 10.55792969 6.01195313 11.26820312 6 12 C4.68 12 3.36 12 2 12 C2 9.03 2 6.06 2 3 C1.01 2.67 0.02 2.34 -1 2 C-0.67 1.34 -0.34 0.68 0 0 Z " fill="#6B4DE0" transform="translate(116,40)"/>
<path d="M0 0 C1.32 0 2.64 0 4 0 C4 3.96 4 7.92 4 12 C2.68 12 1.36 12 0 12 C0 8.04 0 4.08 0 0 Z " fill="#6E51E1" transform="translate(161,40)"/>
<path d="M0 0 C2.31 0 4.62 0 7 0 C6.01 1.485 6.01 1.485 5 3 C4.75944532 5.05709596 4.75944532 5.05709596 4.875 7.1875 C4.91625 8.445625 4.9575 9.70375 5 11 C4.34 11 3.68 11 3 11 C2.49384702 9.73160474 1.99530901 8.46016898 1.5 7.1875 C1.2215625 6.47980469 0.943125 5.77210937 0.65625 5.04296875 C0 3 0 3 0 0 Z " fill="#C0C3DC" transform="translate(21,40)"/>
<path d="M0 0 C1.65 0.33 3.3 0.66 5 1 C5 4 5 4 3.125 6.1875 C1 8 1 8 -1 8 C-0.67 5.36 -0.34 2.72 0 0 Z " fill="#5480B8" transform="translate(56,41)"/>
<path d="M0 0 C0.99 0.33 1.98 0.66 3 1 C2.01 3.97 1.02 6.94 0 10 C-0.66 10 -1.32 10 -2 10 C-1.85950482 8.52031676 -1.71245174 7.04125484 -1.5625 5.5625 C-1.48128906 4.73878906 -1.40007813 3.91507813 -1.31640625 3.06640625 C-1 1 -1 1 0 0 Z " fill="#879DC8" transform="translate(54,40)"/>
<path d="M0 0 C1.98 0.495 1.98 0.495 4 1 C3.67 2.65 3.34 4.3 3 6 C1.68 5.67 0.36 5.34 -1 5 C-0.67 3.35 -0.34 1.7 0 0 Z " fill="#FAF9FE" transform="translate(172,43)"/>
<path d="M0 0 C1.98 0.495 1.98 0.495 4 1 C3.67 2.65 3.34 4.3 3 6 C1.68 5.67 0.36 5.34 -1 5 C-0.67 3.35 -0.34 1.7 0 0 Z " fill="#F2F0FC" transform="translate(144,43)"/>
<path d="M0 0 C1.98 0.495 1.98 0.495 4 1 C3.67 2.65 3.34 4.3 3 6 C1.68 5.67 0.36 5.34 -1 5 C-0.67 3.35 -0.34 1.7 0 0 Z " fill="#FAF9FE" transform="translate(91,43)"/>
</svg>
